# xmcd
#
# Track frame offsets: 
#        182
#        12980
#        31025
#        50342
#        70307
#        84492
#        106422
#        127862
#        143775
#        168992
#        188160
#        200412
#        218275
#        239942
#
# Disc length: 3472 seconds
#
# Revision: 0
# Processed by: cddbd v1.5.2PL0 Copyright (c) Steve Scherf et al.
# Submitted via: ExactAudioCopyFreeDBPlugin 1.0
#
DISCID=ba0d8e0e
DTITLE=Bethel Praise - The Glory Of The Lord (1994) [with John Chisum]
DYEAR=1994
DGENRE=Praise and Worship
TTITLE0=John Chisum - A Lot To Celebrate
TTITLE1=John Chisum - Shout For Joy
TTITLE2=John Chisum - I Have A Destiny
TTITLE3=John Chisum - The Glory Of The Lord
TTITLE4=John Chisum - Humble Yourself
TTITLE5=John Chisum - Lord Take Up Your Holy Throne
TTITLE6=John Chisum - Only Jesus
TTITLE7=John Chisum - Righteousness, Peace And Joy
TTITLE8=John Chisum - O Come And Magnify
TTITLE9=John Chisum - Drink Deep
TTITLE10=John Chisum - Take Me, Bless Me
TTITLE11=John Chisum - Shine, Jesus, Shine
TTITLE12=John Chisum - Heal Our Land
TTITLE13=John Chisum - Elijah
EXTD=
EXTT0=
EXTT1=
EXTT2=
EXTT3=
EXTT4=
EXTT5=
EXTT6=
EXTT7=
EXTT8=
EXTT9=
EXTT10=
EXTT11=
EXTT12=
EXTT13=
PLAYORDER=
